<svg  viewBox="0 0 69 89" fill="none" xmlns="http://www.w3.org/2000/svg">
<path d="M37.9157 29.0204C34.1569 29.0204 31.0853 25.9083 31.0853 22.1496C31.0853 20.338 31.8049 18.6007 33.0858 17.3197C34.3668 16.0388 36.1041 15.3192 37.9157 15.3192C41.7148 15.3192 44.7865 18.3908 44.7865 22.1496C44.7865 25.9083 41.7148 29.0204 37.9157 29.0204V29.0204ZM25.629 76.5504L1.66192 71.7813L3.03609 64.9104L19.809 68.3458L25.2653 40.62L19.1219 43.045V54.6042H12.2915V38.5992L30.0748 31.0412L32.7828 30.7179C35.2078 30.7179 37.2286 32.0921 38.5623 34.1533L42.0382 39.6096C44.7865 44.5 50.2428 47.8142 56.7498 47.8142V54.6042C49.2323 54.6042 42.3615 51.2496 37.9157 46.1167L35.8948 56.3825L43.0486 63.2129V88.9583H36.2182V68.3458L29.024 61.5154L25.629 76.5504V76.5504ZM68.8748 88.9583H60.7915V8.12499H8.24984V61.1113L0.166504 59.4137V0.0416565H68.8748V88.9583ZM8.24984 88.9583H0.166504V75.9442L8.24984 77.6417V88.9583Z" fill="black"/>
</svg>
